<svg xmlns="http://www.w3.org/2000/svg" width="1200" height="630" viewBox="0 0 1200 630"><defs><linearGradient id="g" x1="0" y1="0" x2="1" y2="1"><stop offset="0" stop-color="#3a2418"/><stop offset="1" stop-color="#4a2e1c"/></linearGradient></defs><rect width="1200" height="630" fill="url(#g)"/><rect x="64" y="64" width="64" height="64" rx="14" fill="#c1502e"/><g transform="translate(64,64)"><path d="M6 25 C14 20 24 21 32 26 C40 21 50 20 58 25 C57 35 50 42 41 42 C37 42 34 39 32 37 C30 39 27 42 23 42 C14 42 7 35 6 25 Z" fill="#2a160c"/><ellipse cx="21" cy="30.5" rx="7" ry="3.6" transform="rotate(-10 21 30.5)" fill="#c1502e"/><ellipse cx="43" cy="30.5" rx="7" ry="3.6" transform="rotate(10 43 30.5)" fill="#c1502e"/><circle cx="32" cy="44" r="2.2" fill="#f0c7a3"/></g><text x="64" y="300" font-family="-apple-system,BlinkMacSystemFont,'Segoe UI',Roboto,Helvetica,Arial,sans-serif" font-size="88" font-weight="800" fill="#fff">Built &amp; Unmasked</text><text x="64" y="372" font-family="-apple-system,BlinkMacSystemFont,'Segoe UI',Roboto,Helvetica,Arial,sans-serif" font-size="33" fill="#f0c7a3">Accomplished professionals who build, and live</text><text x="64" y="416" font-family="-apple-system,BlinkMacSystemFont,'Segoe UI',Roboto,Helvetica,Arial,sans-serif" font-size="33" fill="#f0c7a3">with an invisible difference. Austin, Texas.</text></svg>
